<svg xmlns="http://www.w3.org/2000/svg" viewBox="0 0 32 32" width="32" height="32">
  <!-- Background circle -->
  <circle cx="16" cy="16" r="15" fill="#FF6B35" stroke="#FF4500" stroke-width="2"/>
  
  <!-- Flame design for burn theme -->
  <path d="M16 6 C18 8, 20 10, 18 14 C20 12, 24 14, 22 18 C24 16, 26 18, 24 22 C22 20, 18 22, 16 18 C14 22, 10 20, 8 22 C6 18, 8 16, 10 18 C8 14, 12 12, 14 14 C12 10, 14 8, 16 6 Z" fill="#FFD700" opacity="0.9"/>
  
  <!-- Inner flame -->
  <path d="M16 10 C17 11, 18 12, 17 15 C18 14, 20 15, 19 17 C20 16, 21 17, 20 19 C19 18, 17 19, 16 16 C15 19, 13 18, 12 19 C11 17, 12 16, 13 17 C12 15, 14 14, 15 15 C14 12, 15 11, 16 10 Z" fill="#FF8C00"/>
  
  <!-- SHIB text -->
  <text x="16" y="27" text-anchor="middle" font-family="Arial, sans-serif" font-size="6" font-weight="bold" fill="white">SHIB</text>
</svg>
